<svg width="104" height="104" viewBox="0 0 104 104" fill="none" xmlns="http://www.w3.org/2000/svg">
<g clip-path="url(#clip0)">
<path d="M52 0C46.2561 0 41.6 4.65617 41.6 10.4C41.6 16.1438 46.2561 20.8 52 20.8C57.7414 20.7944 62.3943 16.1415 62.4 10.4C62.4 4.65617 57.7438 0 52 0ZM52 17.3333C48.1708 17.3333 45.0666 14.2292 45.0666 10.4C45.0666 6.57085 48.1708 3.46667 52 3.46667C55.8291 3.46667 58.9333 6.57085 58.9333 10.4C58.9333 14.2292 55.8291 17.3333 52 17.3333Z" fill="#2BB24C"/>
<path d="M58.9334 22.5333H58.5243L58.1586 22.7153C54.28 24.6465 49.72 24.6465 45.8415 22.7153L45.4758 22.5333H45.0667C40.2827 22.539 36.4057 26.416 36.4 31.2V41.6C36.4 44.4719 38.7281 46.8 41.6 46.8H62.4C65.2719 46.8 67.6 44.4719 67.6 41.6V31.2C67.5944 26.416 63.7174 22.539 58.9334 22.5333ZM64.1334 41.6C64.1334 42.5572 63.3573 43.3333 62.4 43.3333H41.6C40.6428 43.3333 39.8667 42.5572 39.8667 41.6V31.2C39.8671 28.4717 41.9759 26.2076 44.6975 26.0139C49.3287 28.1632 54.6715 28.1632 59.3026 26.0139C62.0239 26.2076 64.1329 28.4717 64.1334 31.2V41.6Z" fill="#2BB24C"/>
<path d="M88.4 57.2C82.6562 57.2 78 61.8562 78 67.6C78 73.3438 82.6562 78 88.4 78C94.1438 78 98.8 73.3438 98.8 67.6C98.7944 61.8585 94.1414 57.2056 88.4 57.2ZM88.4 74.5333C84.5708 74.5333 81.4667 71.4291 81.4667 67.6C81.4667 63.7708 84.5708 60.6667 88.4 60.6667C92.2291 60.6667 95.3333 63.7708 95.3333 67.6C95.3333 71.4291 92.2291 74.5333 88.4 74.5333Z" fill="#2BB24C"/>
<path d="M95.3334 79.7333H94.9243L94.5586 79.9067C90.68 81.8376 86.1201 81.8376 82.2415 79.9067L81.8758 79.7333H81.4667C76.6827 79.739 72.8057 83.616 72.8 88.4V98.8C72.8 101.672 75.1281 104 78 104H98.8001C101.672 104 104 101.672 104 98.8V88.4C103.994 83.616 100.117 79.739 95.3334 79.7333ZM100.533 98.8C100.533 99.7572 99.7573 100.533 98.8001 100.533H78C77.0428 100.533 76.2667 99.7572 76.2667 98.8V88.4C76.2671 85.6717 78.376 83.4076 81.0975 83.2139C85.7288 85.3632 91.0713 85.3632 95.7026 83.2139C98.4241 83.4076 100.533 85.6717 100.533 88.4V98.8Z" fill="#2BB24C"/>
<path d="M15.6 57.2C9.85612 57.2 5.19995 61.8562 5.19995 67.6C5.19995 73.3438 9.85612 78 15.6 78C21.3438 78 26 73.3438 26 67.6C25.9943 61.8585 21.3414 57.2056 15.6 57.2ZM15.6 74.5333C11.7708 74.5333 8.66662 71.4291 8.66662 67.6C8.66662 63.7708 11.7708 60.6667 15.6 60.6667C19.4291 60.6667 22.5333 63.7708 22.5333 67.6C22.5333 71.4291 19.4291 74.5333 15.6 74.5333Z" fill="#2BB24C"/>
<path d="M22.5333 79.7333H22.1243L21.7585 79.9067C17.88 81.8376 13.32 81.8376 9.44147 79.9067L9.07573 79.7333H8.66667C3.88267 79.739 0.00563333 83.616 0 88.4V98.8C0 101.672 2.32808 104 5.2 104H26C28.8719 104 31.2 101.672 31.2 98.8V88.4C31.1944 83.616 27.3173 79.739 22.5333 79.7333ZM27.7333 98.8C27.7333 99.7572 26.9572 100.533 26 100.533H5.2C4.24277 100.533 3.46667 99.7572 3.46667 98.8V88.4C3.4671 85.6717 5.57592 83.4076 8.29747 83.2139C12.9287 85.3632 18.2713 85.3632 22.9025 83.2139C25.6241 83.4076 27.7329 85.6717 27.7333 88.4V98.8Z" fill="#2BB24C"/>
<path d="M69.1973 88.0265C69.1964 88.0245 69.1955 88.0226 69.1947 88.0204C68.8194 87.1396 67.8013 86.7299 66.9207 87.1052C59.0937 90.3855 50.401 90.984 42.1982 88.8073L43.8206 88.3307C44.7397 88.0616 45.2666 87.0987 44.9975 86.1796C44.7284 85.2605 43.7656 84.7336 42.8465 85.0027L35.9131 87.0359C35.8871 87.0359 35.8681 87.0653 35.8438 87.074C35.6833 87.1338 35.5325 87.2174 35.3966 87.3219C35.3364 87.3544 35.2785 87.3908 35.2233 87.4311C35.0404 87.5942 34.8955 87.7953 34.7986 88.0204C34.7046 88.247 34.6597 88.491 34.6669 88.7363C34.7091 88.9709 34.767 89.2025 34.8402 89.4296C34.8506 89.4539 34.8402 89.4816 34.8593 89.5059L38.3259 96.1393C38.7692 96.9885 39.8168 97.3176 40.6659 96.8743C41.5151 96.431 41.8442 95.3834 41.4009 94.5343L39.9899 91.8372C49.3096 94.6387 59.3155 94.0942 68.2762 90.298C69.1576 89.9251 69.5701 88.9081 69.1973 88.0265Z" fill="#2BB24C"/>
<path d="M98.2921 45.5745C97.6152 44.8979 96.518 44.8979 95.8411 45.5745L93.3885 48.0272C91.9533 32.8454 82.3144 19.6707 68.2794 13.7072C67.3986 13.3319 66.3805 13.7417 66.0053 14.6224C65.63 15.5032 66.0397 16.5213 66.9205 16.8965C79.511 22.2476 88.263 33.9415 89.8473 47.5297L87.8921 45.5745C87.2035 44.9094 86.1063 44.9284 85.4411 45.617C84.7924 46.2887 84.7924 47.3536 85.4411 48.0255L90.6411 53.2255C91.3171 53.9032 92.4148 53.9047 93.0925 53.2285C93.0936 53.2274 93.0947 53.2263 93.0955 53.2255L98.2955 48.0255C98.9713 47.3477 98.9698 46.2505 98.2921 45.5745Z" fill="#2BB24C"/>
<path d="M38.083 15.0089C38.0773 14.9078 38.0624 14.8074 38.0379 14.7091C38.0379 14.6935 38.0188 14.6831 38.0119 14.6657C38.005 14.6484 38.0119 14.6363 38.0119 14.6224C37.9647 14.5381 37.9101 14.458 37.849 14.3832C37.7929 14.2816 37.7266 14.1858 37.6514 14.0972C37.5489 14.0064 37.4354 13.9291 37.3134 13.8667C37.2525 13.8149 37.1875 13.7679 37.1192 13.7263L30.1859 10.5595C29.3004 10.1959 28.2877 10.6191 27.9241 11.5046C27.5803 12.342 27.9389 13.3031 28.7472 13.7107L32.337 15.3521C18.8228 22.5847 10.3902 36.6721 10.3999 52C10.3999 52.9572 11.176 53.7333 12.1332 53.7333C13.0905 53.7333 13.8666 52.9572 13.8666 52C13.8579 38.5032 20.9951 26.0104 32.6264 19.1637L31.3732 21.7828C30.9601 22.6445 31.3221 23.678 32.1827 24.0933C32.4165 24.2075 32.673 24.2669 32.9332 24.2667C33.5988 24.2658 34.2051 23.8838 34.4932 23.2839L37.9599 16.0507C37.9599 16.0333 37.9599 16.0143 37.9738 15.9969C38.0188 15.8784 38.0503 15.7551 38.0674 15.6295C38.0971 15.5361 38.1192 15.4405 38.1332 15.3435C38.1274 15.2306 38.1107 15.1186 38.083 15.0089Z" fill="#2BB24C"/>
</g>
<defs>
<clipPath id="clip0">
<rect width="104" height="104" fill="white"/>
</clipPath>
</defs>
</svg>
