<svg width="102" height="102" viewBox="0 0 102 102" fill="none" xmlns="http://www.w3.org/2000/svg">
<g clip-path="url(#clip0)">
<path d="M17.0001 83.9902V93.5C17.0061 98.192 20.8081 101.994 25.5001 102L93.5001 102C98.1921 101.994 101.994 98.192 102 93.5L102 56.1C101.987 51.7586 98.6962 48.1278 94.3773 47.6875L87.987 31.0994C86.2989 26.7193 81.38 24.5374 76.9995 26.2234L37.0941 41.5956C39.8515 34.3931 39.067 26.3134 34.9768 19.7757L34.0001 18.2138V1.7C34.0001 0.76075 33.2394 0 32.3001 0H1.70012C0.760872 0 0.00012207 0.76075 0.00012207 1.7V57.8149C0.0162735 63.6939 2.35674 69.3269 6.51324 73.4846L17.0001 83.9902ZM17.0001 73.8233L11.8406 60.4299C10.8295 57.8008 12.1398 54.8509 14.7684 53.839L17.7175 52.7C17.2466 53.7719 17.0027 54.9304 17.0001 56.1L17.0001 73.8233ZM98.6001 56.1L98.6001 93.5C98.6001 96.3161 96.3162 98.6 93.5001 98.6L25.5001 98.6C22.6841 98.6 20.4001 96.3161 20.4001 93.5V82.6948H20.415L20.4001 82.6561L20.4001 56.1C20.4133 55.8033 20.452 55.5093 20.5157 55.2194L36.0877 70.7931C39.588 74.2127 45.1683 74.239 48.7 70.8552C52.2326 67.4692 52.4447 61.8932 49.1777 58.2509L42.5392 51L93.5001 51C96.3162 51 98.6001 53.284 98.6001 56.1ZM76.8214 47.6L88.9101 42.9458L90.6985 47.6L76.8214 47.6ZM78.2222 29.3968C80.8504 28.3836 83.802 29.6939 84.8148 32.3221L87.6827 39.78L67.3898 47.6V47.6102H39.4231L37.2135 45.2013L78.2222 29.3968ZM3.40012 3.4H30.6001V17H3.40012V3.4ZM3.40012 20.4H31.3566L32.094 21.5781C36.239 28.2021 36.4039 36.5687 32.5245 43.35C32.1573 43.9917 32.2474 44.7976 32.7472 45.3424L46.6783 60.5404C48.7557 62.8141 48.6388 66.3293 46.4148 68.459C44.1899 70.5891 40.673 70.5542 38.4919 68.3816L11.402 41.2981L8.99822 43.7019L15.2882 49.9919L13.544 50.6719C9.16737 52.3604 6.98627 57.2751 8.67012 61.6543L14.4242 76.5956L8.91705 71.077C5.39805 67.5588 3.41372 62.7912 3.40012 57.8149V20.4Z" fill="#2BB24C"/>
<path d="M82.6201 78.2C80.1789 78.2 78.2001 80.1788 78.2001 82.62V90.78C78.2001 93.2212 80.1789 95.2 82.6201 95.2H90.7801C93.2213 95.2 95.2001 93.2212 95.2001 90.78V82.62C95.2001 80.1788 93.2213 78.2 90.7801 78.2H82.6201ZM91.8001 82.62V85H88.4001V88.4H91.8001V90.78C91.8001 91.3431 91.3432 91.8 90.7801 91.8H82.6201C82.057 91.8 81.6001 91.3431 81.6001 90.78V88.4H85.0001V85H81.6001V82.62C81.6001 82.0569 82.057 81.6 82.6201 81.6H90.7801C91.3432 81.6 91.8001 82.0569 91.8001 82.62Z" fill="#2BB24C"/>
<path d="M93.5001 73.1H86.7001V69.7H93.5001V73.1Z" fill="#2BB24C"/>
<path d="M93.5001 62.9H86.7001V59.5H93.5001V62.9Z" fill="#2BB24C"/>
<path d="M62.9001 62.9H56.1001V59.5H62.9001V62.9Z" fill="#2BB24C"/>
<path d="M83.3001 73.1H76.5001V69.7H83.3001V73.1Z" fill="#2BB24C"/>
<path d="M73.1001 73.1H66.3001V69.7H73.1001V73.1Z" fill="#2BB24C"/>
<path d="M62.9001 73.1H56.1001V69.7H62.9001V73.1Z" fill="#2BB24C"/>
<path d="M30.6001 93.5H27.2001V88.4H30.6001V93.5Z" fill="#2BB24C"/>
<path d="M37.4001 93.5H34.0001V88.4H37.4001V93.5Z" fill="#2BB24C"/>
<path d="M44.2001 93.5H40.8001V88.4H44.2001V93.5Z" fill="#2BB24C"/>
<path d="M51.0001 93.5H47.6001V88.4H51.0001V93.5Z" fill="#2BB24C"/>
<path d="M27.2001 13.6H23.8001V10.2H27.2001V13.6Z" fill="#2BB24C"/>
</g>
<defs>
<clipPath id="clip0">
<rect width="102" height="102" fill="white" transform="translate(102 102) rotate(-180)"/>
</clipPath>
</defs>
</svg>
