<svg width="102" height="102" viewBox="0 0 102 102" fill="none" xmlns="http://www.w3.org/2000/svg">
<path d="M85 18.0098V8.5C84.994 3.808 81.192 0.00595 76.5 0H8.5C3.808 0.00595 0.00595 3.808 0 8.5V45.9C0.013175 50.2414 3.30395 53.8722 7.6228 54.3125L14.0131 70.9006C15.7012 75.2807 20.6201 77.4626 25.0006 75.7766L64.906 60.4044C62.1486 67.6069 62.9332 75.6866 67.0234 82.2243L68 83.7862V100.3C68 101.239 68.7607 102 69.7 102H100.3C101.239 102 102 101.239 102 100.3V44.1851C101.984 38.3061 99.6434 32.6731 95.4869 28.5154L85 18.0098ZM85 28.1767L90.1595 41.5701C91.1706 44.1992 89.8603 47.1491 87.2317 48.161L84.2826 49.3C84.7535 48.2281 84.9975 47.0696 85 45.9V28.1767ZM3.4 45.9V8.5C3.4 5.68395 5.68395 3.4 8.5 3.4H76.5C79.316 3.4 81.6 5.68395 81.6 8.5V19.3052H81.5851L81.6 19.3439V45.9C81.5868 46.1967 81.5481 46.4907 81.4844 46.7806L65.9124 31.2069C62.4121 27.7873 56.8319 27.761 53.3001 31.1448C49.7675 34.5308 49.5554 40.1068 52.8224 43.7491L59.4609 51H8.5C5.68395 51 3.4 48.716 3.4 45.9ZM25.1787 54.4L13.09 59.0542L11.3016 54.4H25.1787ZM23.7779 72.6032C21.1497 73.6164 18.1981 72.3061 17.1853 69.6779L14.3174 62.22L34.6103 54.4V54.3898H62.577L64.7866 56.7987L23.7779 72.6032ZM98.6 98.6H71.4V85H98.6V98.6ZM98.6 81.6H70.6435L69.9061 80.4219C65.7611 73.7979 65.5962 65.4313 69.4756 58.65C69.8428 58.0083 69.7527 57.2024 69.2529 56.6576L55.3218 41.4596C53.2444 39.1859 53.3613 35.6707 55.5853 33.541C57.8102 31.4109 61.3271 31.4458 63.5082 33.6184L90.5981 60.7019L93.0019 58.2981L86.7119 52.0081L88.4561 51.3281C92.8327 49.6396 95.0138 44.7249 93.33 40.3457L87.5759 25.4044L93.0831 30.923C96.6021 34.4412 98.5864 39.2088 98.6 44.1851V81.6Z" fill="#2BB24C"/>
<path d="M19.38 23.8C21.8212 23.8 23.8 21.8212 23.8 19.38V11.22C23.8 8.7788 21.8212 6.8 19.38 6.8H11.22C8.77882 6.8 6.80002 8.7788 6.80002 11.22V19.38C6.80002 21.8212 8.77882 23.8 11.22 23.8H19.38ZM10.2 19.38V17H13.6V13.6H10.2V11.22C10.2 10.6569 10.6569 10.2 11.22 10.2H19.38C19.9431 10.2 20.4 10.6569 20.4 11.22V13.6H17V17H20.4V19.38C20.4 19.9431 19.9431 20.4 19.38 20.4H11.22C10.6569 20.4 10.2 19.9431 10.2 19.38Z" fill="#2BB24C"/>
<path d="M8.50003 28.9H15.3V32.3H8.50003V28.9Z" fill="#2BB24C"/>
<path d="M8.50003 39.1H15.3V42.5H8.50003V39.1Z" fill="#2BB24C"/>
<path d="M39.1 39.1H45.9V42.5H39.1V39.1Z" fill="#2BB24C"/>
<path d="M18.7 28.9H25.5V32.3H18.7V28.9Z" fill="#2BB24C"/>
<path d="M28.9 28.9H35.7V32.3H28.9V28.9Z" fill="#2BB24C"/>
<path d="M39.1 28.9H45.9V32.3H39.1V28.9Z" fill="#2BB24C"/>
<path d="M71.4 8.5H74.8V13.6H71.4V8.5Z" fill="#2BB24C"/>
<path d="M64.6 8.5H68V13.6H64.6V8.5Z" fill="#2BB24C"/>
<path d="M57.8 8.5H61.2V13.6H57.8V8.5Z" fill="#2BB24C"/>
<path d="M51 8.5H54.4V13.6H51V8.5Z" fill="#2BB24C"/>
<path d="M74.8 88.4H78.2V91.8H74.8V88.4Z" fill="#2BB24C"/>
</svg>
