<svg width="106" height="98" viewBox="0 0 106 98" fill="none" xmlns="http://www.w3.org/2000/svg">
<path d="M52.2779 97.8484C51.6965 97.8484 51.1285 97.6353 50.7068 97.2502C50.1831 96.7667 49.9524 96.0702 50.0988 95.4023L53.2366 80.9183C53.3253 80.5168 53.5295 80.1521 53.8446 79.8694L88.3641 48.0006C90.9559 45.6077 95.1855 45.6077 97.7773 48.0006L104.053 53.7941C106.649 56.1911 106.649 60.0876 104.053 62.4845L69.5333 94.3534C69.227 94.6402 68.832 94.8328 68.3971 94.9147L52.7084 97.8115C52.5664 97.8361 52.42 97.8484 52.2779 97.8484ZM57.4616 82.3237L55.1094 93.1856L66.8748 91.0141L100.919 59.5836C101.785 58.7847 101.785 57.4858 100.919 56.6868L94.644 50.8933C93.7786 50.0943 92.3717 50.0943 91.5063 50.8933L57.4616 82.3237ZM67.9666 92.9029H68.011H67.9666Z" fill="#2BB24C"/>
<path d="M41.9583 85.6171H11.0417C4.95108 85.6171 0 81.0467 0 75.4245V22.4232C0 16.8009 4.95108 12.2306 11.0417 12.2306H19.875C21.094 12.2306 22.0833 13.1438 22.0833 14.2691C22.0833 15.3944 21.094 16.3076 19.875 16.3076H11.0417C7.38908 16.3076 4.41667 19.0515 4.41667 22.4232V75.4245C4.41667 78.7962 7.38908 81.54 11.0417 81.54H41.9583C43.1773 81.54 44.1667 82.4533 44.1667 83.5786C44.1667 84.7038 43.1773 85.6171 41.9583 85.6171Z" fill="#2BB24C"/>
<path d="M72.875 48.924C71.656 48.924 70.6667 48.0107 70.6667 46.8854V22.4232C70.6667 19.0515 67.6942 16.3076 64.0417 16.3076H55.2083C53.9893 16.3076 53 15.3944 53 14.2691C53 13.1438 53.9893 12.2306 55.2083 12.2306H64.0417C70.1322 12.2306 75.0833 16.801 75.0833 22.4232V46.8854C75.0833 48.0107 74.094 48.924 72.875 48.924Z" fill="#2BB24C"/>
<path d="M50.7916 24.462H24.2916C20.639 24.462 17.6666 21.7182 17.6666 18.3465V10.1925C17.6666 9.06726 18.656 8.15401 19.875 8.15401H26.7208C27.7455 3.50623 32.2107 0 37.5416 0C42.8725 0 47.3378 3.50623 48.3625 8.15401H55.2083C56.4273 8.15401 57.4166 9.06726 57.4166 10.1925V18.3465C57.4166 21.7182 54.4442 24.462 50.7916 24.462ZM22.0833 12.231V18.3465C22.0833 19.4677 23.077 20.385 24.2916 20.385H50.7916C52.0062 20.385 53 19.4677 53 18.3465V12.231H46.375C45.156 12.231 44.1666 11.3178 44.1666 10.1925C44.1666 6.82083 41.1942 4.07701 37.5416 4.07701C33.889 4.07701 30.9166 6.82083 30.9166 10.1925C30.9166 11.3178 29.9273 12.231 28.7083 12.231H22.0833Z" fill="#2BB24C"/>
<path d="M59.625 36.6929H15.4583C14.2393 36.6929 13.25 35.7796 13.25 34.6543C13.25 33.529 14.2393 32.6157 15.4583 32.6157H59.625C60.844 32.6157 61.8333 33.529 61.8333 34.6543C61.8333 35.7796 60.844 36.6929 59.625 36.6929Z" fill="#2BB24C"/>
<path d="M59.625 48.924H15.4583C14.2393 48.924 13.25 48.0107 13.25 46.8854C13.25 45.7602 14.2393 44.8469 15.4583 44.8469H59.625C60.844 44.8469 61.8333 45.7602 61.8333 46.8854C61.8333 48.0107 60.844 48.924 59.625 48.924Z" fill="#2BB24C"/>
<path d="M59.625 61.1553H15.4583C14.2393 61.1553 13.25 60.242 13.25 59.1166C13.25 57.9913 14.2393 57.078 15.4583 57.078H59.625C60.844 57.078 61.8333 57.9913 61.8333 59.1166C61.8333 60.242 60.844 61.1553 59.625 61.1553Z" fill="#2BB24C"/>
</svg>
